<?xml version="1.0" standalone="no"?>
<!DOCTYPE svg PUBLIC "-//W3C//DTD SVG 20010904//EN"
 "http://www.w3.org/TR/2001/REC-SVG-20010904/DTD/svg10.dtd">
<svg version="1.0" xmlns="http://www.w3.org/2000/svg"
 width="500.000000pt" height="500.000000pt" viewBox="0 0 500.000000 500.000000"
 preserveAspectRatio="xMidYMid meet">
<metadata>
Created by potrace 1.16, written by Peter Selinger 2001-2019
</metadata>
<g transform="translate(0.000000,500.000000) scale(0.100000,-0.100000)"
fill="#000000" stroke="none">
<path d="M568 4354 c-15 -8 -31 -27 -35 -42 -10 -35 -10 -2029 0 -2064 16 -60
-16 -58 932 -58 l867 0 29 29 29 29 0 1032 0 1032 -29 29 -29 29 -869 0 c-748
-1 -872 -3 -895 -16z m1622 -1074 l0 -890 -730 0 -730 0 0 890 0 890 730 0
730 0 0 -890z"/>
<path d="M2639 4341 l-29 -29 0 -617 0 -616 24 -24 c14 -14 41 -26 67 -30 24
-3 421 -5 881 -3 l838 3 27 28 28 27 0 603 c0 331 -3 614 -8 629 -16 60 16 58
-932 58 l-867 0 -29 -29z m1631 -641 l0 -470 -730 0 -730 0 0 470 0 470 730 0
730 0 0 -470z"/>
<path d="M2639 2781 l-29 -29 0 -1032 0 -1032 29 -29 29 -29 867 0 c948 0 916
-2 932 58 10 35 10 2029 0 2064 -16 60 16 58 -932 58 l-867 0 -29 -29z m1631
-1061 l0 -890 -730 0 -730 0 0 890 0 890 730 0 730 0 0 -890z"/>
<path d="M599 1973 c-15 -2 -37 -15 -50 -29 l-24 -26 0 -607 c0 -654 -1 -646
52 -670 17 -8 276 -11 889 -11 l866 0 29 29 29 29 0 615 c0 691 5 649 -75 667
-38 9 -1660 12 -1716 3z m1591 -673 l0 -470 -730 0 -730 0 0 470 0 470 730 0
730 0 0 -470z"/>
</g>
</svg>
